<?xml version="1.0" encoding="us-ascii" standalone="no"?><svg xmlns="http://www.w3.org/2000/svg" xmlns:xlink="http://www.w3.org/1999/xlink" contentStyleType="text/css" height="529px" preserveAspectRatio="none" style="width:490px;height:529px;background:#FFFFFF;" version="1.1" viewBox="0 0 490 529" width="490px" zoomAndPan="magnify"><defs/><g><!--class GhoForward--><g id="elem_GhoForward"><rect codeLine="11" fill="#F1F1F1" height="406.5313" id="GhoForward" rx="2.5" ry="2.5" style="stroke:#181818;stroke-width:0.5;" width="337" x="106.5" y="7"/><ellipse cx="227.75" cy="23" fill="#ADD1B2" rx="11" ry="11" style="stroke:#181818;stroke-width:1.0;"/><path d="M230.0938,18.6719 C229.1563,18.2344 228.5625,18.0938 227.6875,18.0938 C225.0625,18.0938 223.0625,20.1719 223.0625,22.8906 L223.0625,24.0156 C223.0625,26.5938 225.1719,28.4844 228.0625,28.4844 C229.2813,28.4844 230.4375,28.1875 231.1875,27.6406 C231.7656,27.2344 232.0938,26.7813 232.0938,26.3906 C232.0938,25.9375 231.7031,25.5469 231.2344,25.5469 C231.0156,25.5469 230.8125,25.625 230.625,25.8125 C230.1719,26.2969 230.1719,26.2969 229.9844,26.3906 C229.5625,26.6563 228.875,26.7813 228.1094,26.7813 C226.0625,26.7813 224.7656,25.6875 224.7656,23.9844 L224.7656,22.8906 C224.7656,21.1094 226.0156,19.7969 227.75,19.7969 C228.3281,19.7969 228.9375,19.9531 229.4063,20.2031 C229.8906,20.4844 230.0625,20.7031 230.1563,21.1094 C230.2188,21.5156 230.25,21.6406 230.3906,21.7656 C230.5313,21.9063 230.7656,22.0156 230.9844,22.0156 C231.25,22.0156 231.5156,21.875 231.6875,21.6563 C231.7969,21.5 231.8281,21.3125 231.8281,20.8906 L231.8281,19.4688 C231.8281,19.0313 231.8125,18.9063 231.7188,18.75 C231.5625,18.4844 231.2813,18.3438 230.9844,18.3438 C230.6875,18.3438 230.4844,18.4375 230.2656,18.75 L230.0938,18.6719 Z " fill="#000000"/><text fill="#000000" font-family="sans-serif" font-size="14" lengthAdjust="spacing" textLength="86" x="248.25" y="27.8467">GhoForward</text><line style="stroke:#181818;stroke-width:0.5;" x1="107.5" x2="442.5" y1="39" y2="39"/><text fill="#000000" font-family="sans-serif" font-size="14" font-style="italic" lengthAdjust="spacing" textLength="123" x="126.5" y="55.9951">IERC721Receiver</text><text fill="#000000" font-family="sans-serif" font-size="14" font-style="italic" lengthAdjust="spacing" textLength="126" x="126.5" y="72.292">ReentrancyGuard</text><text fill="#000000" font-family="sans-serif" font-size="14" font-style="italic" lengthAdjust="spacing" textLength="62" x="126.5" y="88.5889">Ownable</text><text fill="#000000" font-family="sans-serif" font-size="14" lengthAdjust="spacing" textLength="4" x="126.5" y="104.8857">&#160;</text><text fill="#000000" font-family="sans-serif" font-size="14" lengthAdjust="spacing" textLength="4" x="126.5" y="121.1826">&#160;</text><ellipse cx="117.5" cy="134.1328" fill="none" rx="3" ry="3" style="stroke:#038048;stroke-width:1.0;"/><a href="address" target="_top" title="address" xlink:actuate="onRequest" xlink:href="address" xlink:show="new" xlink:title="address" xlink:type="simple"><text fill="#0000FF" font-family="sans-serif" font-size="14" lengthAdjust="spacing" text-decoration="underline" textLength="55" x="126.5" y="137.4795">address</text></a><text fill="#000000" font-family="sans-serif" font-size="14" lengthAdjust="spacing" textLength="95" x="185.5" y="137.4795">DEBT_TOKEN</text><ellipse cx="117.5" cy="150.4297" fill="none" rx="3" ry="3" style="stroke:#038048;stroke-width:1.0;"/><a href="address" target="_top" title="address" xlink:actuate="onRequest" xlink:href="address" xlink:show="new" xlink:title="address" xlink:type="simple"><text fill="#0000FF" font-family="sans-serif" font-size="14" lengthAdjust="spacing" text-decoration="underline" textLength="55" x="126.5" y="153.7764">address</text></a><text fill="#000000" font-family="sans-serif" font-size="14" lengthAdjust="spacing" textLength="115" x="185.5" y="153.7764">POOL_ADDRESS</text><ellipse cx="117.5" cy="166.7266" fill="none" rx="3" ry="3" style="stroke:#038048;stroke-width:1.0;"/><a href="address" target="_top" title="address" xlink:actuate="onRequest" xlink:href="address" xlink:show="new" xlink:title="address" xlink:type="simple"><text fill="#0000FF" font-family="sans-serif" font-size="14" lengthAdjust="spacing" text-decoration="underline" textLength="55" x="126.5" y="170.0732">address</text></a><text fill="#000000" font-family="sans-serif" font-size="14" lengthAdjust="spacing" textLength="88" x="185.5" y="170.0732">GHO_TOKEN</text><ellipse cx="117.5" cy="183.0234" fill="none" rx="3" ry="3" style="stroke:#038048;stroke-width:1.0;"/><a href="mapping" target="_top" title="mapping" xlink:actuate="onRequest" xlink:href="mapping" xlink:show="new" xlink:title="mapping" xlink:type="simple"><text fill="#0000FF" font-family="sans-serif" font-size="14" lengthAdjust="spacing" text-decoration="underline" textLength="186" x="126.5" y="186.3701">uint256=&gt;BorrowRequest</text></a><text fill="#000000" font-family="sans-serif" font-size="14" lengthAdjust="spacing" textLength="117" x="320.5" y="186.3701">borrowRequests</text><ellipse cx="117.5" cy="199.3203" fill="none" rx="3" ry="3" style="stroke:#038048;stroke-width:1.0;"/><a href="mapping" target="_top" title="mapping" xlink:actuate="onRequest" xlink:href="mapping" xlink:show="new" xlink:title="mapping" xlink:type="simple"><text fill="#0000FF" font-family="sans-serif" font-size="14" lengthAdjust="spacing" text-decoration="underline" textLength="109" x="126.5" y="202.667">address=&gt;bool</text></a><text fill="#000000" font-family="sans-serif" font-size="14" lengthAdjust="spacing" textLength="124" x="243.5" y="202.667">userHasBorrowed</text><ellipse cx="117.5" cy="215.6172" fill="none" rx="3" ry="3" style="stroke:#038048;stroke-width:1.0;"/><a href="uint256" target="_top" title="uint256" xlink:actuate="onRequest" xlink:href="uint256" xlink:show="new" xlink:title="uint256" xlink:type="simple"><text fill="#0000FF" font-family="sans-serif" font-size="14" lengthAdjust="spacing" text-decoration="underline" textLength="54" x="126.5" y="218.9639">uint256</text></a><text fill="#000000" font-family="sans-serif" font-size="14" lengthAdjust="spacing" textLength="149" x="184.5" y="218.9639">borrowRequestIndex</text><ellipse cx="117.5" cy="231.9141" fill="none" rx="3" ry="3" style="stroke:#038048;stroke-width:1.0;"/><a href="uint256" target="_top" title="uint256" xlink:actuate="onRequest" xlink:href="uint256" xlink:show="new" xlink:title="uint256" xlink:type="simple"><text fill="#0000FF" font-family="sans-serif" font-size="14" lengthAdjust="spacing" text-decoration="underline" textLength="54" x="126.5" y="235.2607">uint256</text></a><text fill="#000000" font-family="sans-serif" font-size="14" lengthAdjust="spacing" textLength="155" x="184.5" y="235.2607">totalDelegatedCredit</text><ellipse cx="117.5" cy="248.2109" fill="none" rx="3" ry="3" style="stroke:#038048;stroke-width:1.0;"/><a href="uint256" target="_top" title="uint256" xlink:actuate="onRequest" xlink:href="uint256" xlink:show="new" xlink:title="uint256" xlink:type="simple"><text fill="#0000FF" font-family="sans-serif" font-size="14" lengthAdjust="spacing" text-decoration="underline" textLength="54" x="126.5" y="251.5576">uint256</text></a><text fill="#000000" font-family="sans-serif" font-size="14" lengthAdjust="spacing" textLength="104" x="184.5" y="251.5576">totalBorrowed</text><ellipse cx="117.5" cy="264.5078" fill="none" rx="3" ry="3" style="stroke:#038048;stroke-width:1.0;"/><a href="uint256" target="_top" title="uint256" xlink:actuate="onRequest" xlink:href="uint256" xlink:show="new" xlink:title="uint256" xlink:type="simple"><text fill="#0000FF" font-family="sans-serif" font-size="14" lengthAdjust="spacing" text-decoration="underline" textLength="54" x="126.5" y="267.8545">uint256</text></a><text fill="#000000" font-family="sans-serif" font-size="14" lengthAdjust="spacing" textLength="131" x="184.5" y="267.8545">interestRateMode</text><line style="stroke:#181818;stroke-width:0.5;" x1="107.5" x2="442.5" y1="275.1563" y2="275.1563"/><ellipse cx="117.5" cy="288.8047" fill="#84BE84" rx="3" ry="3" style="stroke:#038048;stroke-width:1.0;"/><text fill="#000000" font-family="sans-serif" font-size="14" font-weight="bold" lengthAdjust="spacing" textLength="125" x="126.5" y="292.1514">__constructor__</text><text fill="#000000" font-family="sans-serif" font-size="14" lengthAdjust="spacing" textLength="10" x="251.5" y="292.1514">()</text><ellipse cx="117.5" cy="305.1016" fill="#84BE84" rx="3" ry="3" style="stroke:#038048;stroke-width:1.0;"/><text fill="#000000" font-family="sans-serif" font-size="14" lengthAdjust="spacing" textLength="167" x="126.5" y="308.4482">createBorrowRequest()</text><ellipse cx="117.5" cy="321.3984" fill="#84BE84" rx="3" ry="3" style="stroke:#038048;stroke-width:1.0;"/><text fill="#000000" font-family="sans-serif" font-size="14" lengthAdjust="spacing" textLength="287" x="126.5" y="324.7451">fulfillBorrowRequestWithDelegatedSig()</text><ellipse cx="117.5" cy="337.6953" fill="#84BE84" rx="3" ry="3" style="stroke:#038048;stroke-width:1.0;"/><text fill="#000000" font-family="sans-serif" font-size="14" lengthAdjust="spacing" textLength="244" x="126.5" y="341.042">repayBorrowRequestWithPermit()</text><ellipse cx="117.5" cy="353.9922" fill="#84BE84" rx="3" ry="3" style="stroke:#038048;stroke-width:1.0;"/><text fill="#000000" font-family="sans-serif" font-size="14" lengthAdjust="spacing" textLength="306" x="126.5" y="357.3389">fulfillBorrowRequestApprovedDelegation()</text><ellipse cx="117.5" cy="370.2891" fill="#84BE84" rx="3" ry="3" style="stroke:#038048;stroke-width:1.0;"/><text fill="#000000" font-family="sans-serif" font-size="14" lengthAdjust="spacing" textLength="166" x="126.5" y="373.6357">&#128269;getBorrowReqeusts()</text><ellipse cx="117.5" cy="386.5859" fill="#84BE84" rx="3" ry="3" style="stroke:#038048;stroke-width:1.0;"/><text fill="#000000" font-family="sans-serif" font-size="14" lengthAdjust="spacing" textLength="149" x="126.5" y="389.9326">onERC721Received()</text><ellipse cx="117.5" cy="402.8828" fill="#84BE84" rx="3" ry="3" style="stroke:#038048;stroke-width:1.0;"/><text fill="#000000" font-family="sans-serif" font-size="14" lengthAdjust="spacing" textLength="164" x="126.5" y="406.2295">setInterestRateMode()</text></g><!--class IERC721Receiver--><g id="elem_IERC721Receiver"><rect fill="#F1F1F1" height="48" id="IERC721Receiver" rx="2.5" ry="2.5" style="stroke:#181818;stroke-width:0.5;" width="154" x="7" y="474"/><ellipse cx="22" cy="490" fill="#ADD1B2" rx="11" ry="11" style="stroke:#181818;stroke-width:1.0;"/><path d="M24.3438,485.6719 C23.4063,485.2344 22.8125,485.0938 21.9375,485.0938 C19.3125,485.0938 17.3125,487.1719 17.3125,489.8906 L17.3125,491.0156 C17.3125,493.5938 19.4219,495.4844 22.3125,495.4844 C23.5313,495.4844 24.6875,495.1875 25.4375,494.6406 C26.0156,494.2344 26.3438,493.7813 26.3438,493.3906 C26.3438,492.9375 25.9531,492.5469 25.4844,492.5469 C25.2656,492.5469 25.0625,492.625 24.875,492.8125 C24.4219,493.2969 24.4219,493.2969 24.2344,493.3906 C23.8125,493.6563 23.125,493.7813 22.3594,493.7813 C20.3125,493.7813 19.0156,492.6875 19.0156,490.9844 L19.0156,489.8906 C19.0156,488.1094 20.2656,486.7969 22,486.7969 C22.5781,486.7969 23.1875,486.9531 23.6563,487.2031 C24.1406,487.4844 24.3125,487.7031 24.4063,488.1094 C24.4688,488.5156 24.5,488.6406 24.6406,488.7656 C24.7813,488.9063 25.0156,489.0156 25.2344,489.0156 C25.5,489.0156 25.7656,488.875 25.9375,488.6563 C26.0469,488.5 26.0781,488.3125 26.0781,487.8906 L26.0781,486.4688 C26.0781,486.0313 26.0625,485.9063 25.9688,485.75 C25.8125,485.4844 25.5313,485.3438 25.2344,485.3438 C24.9375,485.3438 24.7344,485.4375 24.5156,485.75 L24.3438,485.6719 Z " fill="#000000"/><text fill="#000000" font-family="sans-serif" font-size="14" lengthAdjust="spacing" textLength="122" x="36" y="494.8467">IERC721Receiver</text><line style="stroke:#181818;stroke-width:0.5;" x1="8" x2="160" y1="506" y2="506"/><line style="stroke:#181818;stroke-width:0.5;" x1="8" x2="160" y1="514" y2="514"/></g><!--class ReentrancyGuard--><g id="elem_ReentrancyGuard"><rect fill="#F1F1F1" height="48" id="ReentrancyGuard" rx="2.5" ry="2.5" style="stroke:#181818;stroke-width:0.5;" width="157" x="196.5" y="474"/><ellipse cx="211.5" cy="490" fill="#ADD1B2" rx="11" ry="11" style="stroke:#181818;stroke-width:1.0;"/><path d="M213.8438,485.6719 C212.9063,485.2344 212.3125,485.0938 211.4375,485.0938 C208.8125,485.0938 206.8125,487.1719 206.8125,489.8906 L206.8125,491.0156 C206.8125,493.5938 208.9219,495.4844 211.8125,495.4844 C213.0313,495.4844 214.1875,495.1875 214.9375,494.6406 C215.5156,494.2344 215.8438,493.7813 215.8438,493.3906 C215.8438,492.9375 215.4531,492.5469 214.9844,492.5469 C214.7656,492.5469 214.5625,492.625 214.375,492.8125 C213.9219,493.2969 213.9219,493.2969 213.7344,493.3906 C213.3125,493.6563 212.625,493.7813 211.8594,493.7813 C209.8125,493.7813 208.5156,492.6875 208.5156,490.9844 L208.5156,489.8906 C208.5156,488.1094 209.7656,486.7969 211.5,486.7969 C212.0781,486.7969 212.6875,486.9531 213.1563,487.2031 C213.6406,487.4844 213.8125,487.7031 213.9063,488.1094 C213.9688,488.5156 214,488.6406 214.1406,488.7656 C214.2813,488.9063 214.5156,489.0156 214.7344,489.0156 C215,489.0156 215.2656,488.875 215.4375,488.6563 C215.5469,488.5 215.5781,488.3125 215.5781,487.8906 L215.5781,486.4688 C215.5781,486.0313 215.5625,485.9063 215.4688,485.75 C215.3125,485.4844 215.0313,485.3438 214.7344,485.3438 C214.4375,485.3438 214.2344,485.4375 214.0156,485.75 L213.8438,485.6719 Z " fill="#000000"/><text fill="#000000" font-family="sans-serif" font-size="14" lengthAdjust="spacing" textLength="125" x="225.5" y="494.8467">ReentrancyGuard</text><line style="stroke:#181818;stroke-width:0.5;" x1="197.5" x2="352.5" y1="506" y2="506"/><line style="stroke:#181818;stroke-width:0.5;" x1="197.5" x2="352.5" y1="514" y2="514"/></g><!--class Ownable--><g id="elem_Ownable"><rect fill="#F1F1F1" height="48" id="Ownable" rx="2.5" ry="2.5" style="stroke:#181818;stroke-width:0.5;" width="94" x="389" y="474"/><ellipse cx="404" cy="490" fill="#ADD1B2" rx="11" ry="11" style="stroke:#181818;stroke-width:1.0;"/><path d="M406.3438,485.6719 C405.4063,485.2344 404.8125,485.0938 403.9375,485.0938 C401.3125,485.0938 399.3125,487.1719 399.3125,489.8906 L399.3125,491.0156 C399.3125,493.5938 401.4219,495.4844 404.3125,495.4844 C405.5313,495.4844 406.6875,495.1875 407.4375,494.6406 C408.0156,494.2344 408.3438,493.7813 408.3438,493.3906 C408.3438,492.9375 407.9531,492.5469 407.4844,492.5469 C407.2656,492.5469 407.0625,492.625 406.875,492.8125 C406.4219,493.2969 406.4219,493.2969 406.2344,493.3906 C405.8125,493.6563 405.125,493.7813 404.3594,493.7813 C402.3125,493.7813 401.0156,492.6875 401.0156,490.9844 L401.0156,489.8906 C401.0156,488.1094 402.2656,486.7969 404,486.7969 C404.5781,486.7969 405.1875,486.9531 405.6563,487.2031 C406.1406,487.4844 406.3125,487.7031 406.4063,488.1094 C406.4688,488.5156 406.5,488.6406 406.6406,488.7656 C406.7813,488.9063 407.0156,489.0156 407.2344,489.0156 C407.5,489.0156 407.7656,488.875 407.9375,488.6563 C408.0469,488.5 408.0781,488.3125 408.0781,487.8906 L408.0781,486.4688 C408.0781,486.0313 408.0625,485.9063 407.9688,485.75 C407.8125,485.4844 407.5313,485.3438 407.2344,485.3438 C406.9375,485.3438 406.7344,485.4375 406.5156,485.75 L406.3438,485.6719 Z " fill="#000000"/><text fill="#000000" font-family="sans-serif" font-size="14" lengthAdjust="spacing" textLength="62" x="418" y="494.8467">Ownable</text><line style="stroke:#181818;stroke-width:0.5;" x1="390" x2="482" y1="506" y2="506"/><line style="stroke:#181818;stroke-width:0.5;" x1="390" x2="482" y1="514" y2="514"/></g><!--link GhoForward to IERC721Receiver--><g id="link_GhoForward_IERC721Receiver"><path codeLine="42" d="M139.502,414.038 C123.64,437.7469 119.5849,443.8095 109.5823,458.7608 " fill="none" id="GhoForward-to-IERC721Receiver" style="stroke:#B8860B;stroke-width:1.0;"/><polygon fill="none" points="99.5734,473.7215,114.5692,462.0971,104.5954,455.4245,99.5734,473.7215" style="stroke:#B8860B;stroke-width:1.0;"/></g><!--link GhoForward to ReentrancyGuard--><g id="link_GhoForward_ReentrancyGuard"><path codeLine="43" d="M275,414.038 C275,437.7469 275,440.7702 275,455.7215 " fill="none" id="GhoForward-to-ReentrancyGuard" style="stroke:#B8860B;stroke-width:1.0;"/><polygon fill="none" points="275,473.7215,281,455.7215,269,455.7215,275,473.7215" style="stroke:#B8860B;stroke-width:1.0;"/></g><!--link GhoForward to Ownable--><g id="link_GhoForward_Ownable"><path codeLine="44" d="M389.216,414.038 C402.586,437.7469 405.5989,443.0917 414.0309,458.043 " fill="none" id="GhoForward-to-Ownable" style="stroke:#B8860B;stroke-width:1.0;"/><polygon fill="none" points="422.873,473.7215,419.257,455.0956,408.8047,460.9903,422.873,473.7215" style="stroke:#B8860B;stroke-width:1.0;"/></g><!--SRC=[dLFHRjCm57rUli8I3uMYj68I84rgqRQMRcAiKpg9XwgAdFYsDJXsiAzRgh5Fu8rtVf5Fu2QDIf8nJSAA8kVSSy-zkJxki31aAz1WEO9WoUw4hH5pTzBlPzn-0SmLJw6taSvpvT0BQNgfoVeI8NFlYlSrps20KjEpXQJdZ992uYxSfuISKj3Oe1DqYb9BOndtQ48BMe1bKZlaIlrVrS-G9Av7N8q-K_i29aTfjADjGAk4KiMTWmegFzXaRTuRk-LMiBk0qIg9Kg_1IkGwXO9yTCSJXvQdU7yvZixV7h-A80Mv0LiFHG2QTZhTJJpfrKFJhUQ9Wk1l1U-aNb7bifS3kk6sxExevNpEXR3Wt6B1HkEps_Xs-c5ytGhSJATNyUbe58rdirPeSZ6jfMGypwaUytGwnw_V38PdnbgpZU2h1uUC-4aTS8saIdGmJ8nH1TSxi1VSxJL0bEHAkQrqIMVxhKL0GmSz0WMhmcdd5iWN_w8yeayRe7umekoFHjI7cW6kZQWcsEt6SKe6GEjJybqSTxlFNn2UMg3CnW1AVEdLKYhL27oIk3vqEfEhacWXvxi7j1kmcNnSwJJFhTc0gDJ8cINrzw-VFrQ01ofucduPCRhXD5623cYYpTydFBWF7hYstt1OpULXE7ysegirCKg0ZenOV1-ojgkVuhUj_XI_ylyV]--></g></svg>